<svg xmlns="http://www.w3.org/2000/svg" xmlns:xlink="http://www.w3.org/1999/xlink" width="40" zoomAndPan="magnify" viewBox="0 0 30 30.000001" height="40" preserveAspectRatio="xMidYMid meet" version="1.0"><defs><clipPath id="a4491d0e97"><path d="M 1 0 L 29 0 L 29 29 L 1 29 Z M 1 0 " clip-rule="nonzero"/></clipPath><clipPath id="bb8de3e0df"><path d="M 0.535156 2.566406 L 26.859375 0 L 29.4375 26.425781 L 3.113281 28.996094 Z M 0.535156 2.566406 " clip-rule="nonzero"/></clipPath><clipPath id="588527da17"><path d="M 7.757812 1.863281 L 19.632812 0.703125 C 23.625 0.316406 27.171875 3.234375 27.5625 7.222656 L 28.730469 19.183594 C 29.117188 23.175781 26.199219 26.726562 22.210938 27.113281 L 10.332031 28.273438 C 6.34375 28.660156 2.792969 25.742188 2.40625 21.753906 L 1.238281 9.792969 C 0.847656 5.800781 3.769531 2.253906 7.757812 1.863281 Z M 7.757812 1.863281 " clip-rule="nonzero"/></clipPath><clipPath id="4eea929914"><path d="M 0 0.230469 L 28 0.230469 L 28 28.800781 L 0 28.800781 Z M 0 0.230469 " clip-rule="nonzero"/></clipPath><clipPath id="248c1d9954"><path d="M -0.464844 2.566406 L 25.859375 0 L 28.4375 26.425781 L 2.113281 28.996094 Z M -0.464844 2.566406 " clip-rule="nonzero"/></clipPath><clipPath id="53dc7bf7c1"><path d="M 6.757812 1.863281 L 18.632812 0.703125 C 22.625 0.316406 26.171875 3.234375 26.5625 7.222656 L 27.730469 19.183594 C 28.117188 23.175781 25.199219 26.726562 21.210938 27.113281 L 9.332031 28.273438 C 5.34375 28.660156 1.792969 25.742188 1.40625 21.753906 L 0.238281 9.792969 C -0.152344 5.800781 2.769531 2.253906 6.757812 1.863281 Z M 6.757812 1.863281 " clip-rule="nonzero"/></clipPath><clipPath id="7d42a0f1fb"><rect x="0" width="28" y="0" height="29"/></clipPath><clipPath id="ec418cf9c0"><path d="M 2 1 L 28 1 L 28 28 L 2 28 Z M 2 1 " clip-rule="nonzero"/></clipPath><clipPath id="05cb21c169"><path d="M 1.5625 3.316406 L 25.941406 0.9375 L 28.347656 25.601562 L 3.96875 27.980469 Z M 1.5625 3.316406 " clip-rule="nonzero"/></clipPath><clipPath id="da7ecba9c6"><path d="M 8.789062 2.609375 L 18.71875 1.640625 C 22.707031 1.25 26.257812 4.171875 26.648438 8.160156 L 27.640625 18.34375 C 28.03125 22.332031 25.109375 25.882812 21.121094 26.269531 L 11.191406 27.238281 C 7.199219 27.628906 3.652344 24.710938 3.261719 20.71875 L 2.269531 10.539062 C 1.878906 6.546875 4.796875 3 8.789062 2.609375 Z M 8.789062 2.609375 " clip-rule="nonzero"/></clipPath><clipPath id="06f531f6b0"><path d="M 0 0.160156 L 26 0.160156 L 26 26.640625 L 0 26.640625 Z M 0 0.160156 " clip-rule="nonzero"/></clipPath><clipPath id="7487ec4f07"><path d="M -0.4375 2.316406 L 23.941406 -0.0625 L 26.347656 24.601562 L 1.96875 26.980469 Z M -0.4375 2.316406 " clip-rule="nonzero"/></clipPath><clipPath id="0819777191"><path d="M 6.789062 1.609375 L 16.71875 0.640625 C 20.707031 0.25 24.257812 3.171875 24.648438 7.160156 L 25.640625 17.34375 C 26.03125 21.332031 23.109375 24.882812 19.121094 25.269531 L 9.191406 26.238281 C 5.199219 26.628906 1.652344 23.710938 1.261719 19.71875 L 0.269531 9.539062 C -0.121094 5.546875 2.796875 2 6.789062 1.609375 Z M 6.789062 1.609375 " clip-rule="nonzero"/></clipPath><clipPath id="94868f47ba"><rect x="0" width="26" y="0" height="27"/></clipPath><clipPath id="be2c70147c"><path d="M 9 5 L 21 5 L 21 24 L 9 24 Z M 9 5 " clip-rule="nonzero"/></clipPath><clipPath id="47effabf2a"><path d="M 11.675781 23.375 L 9.902344 6.777344 L 18.5625 5.851562 L 20.335938 22.453125 Z M 11.675781 23.375 " clip-rule="nonzero"/></clipPath><clipPath id="d12c3bc0c7"><path d="M 1 1 L 10 1 L 10 13 L 1 13 Z M 1 1 " clip-rule="nonzero"/></clipPath><clipPath id="2cc2201c2b"><path d="M 2.675781 18.375 L 0.902344 1.777344 L 9.5625 0.851562 L 11.335938 17.453125 Z M 2.675781 18.375 " clip-rule="nonzero"/></clipPath><clipPath id="4d9ffd8b09"><path d="M 0.878906 1.550781 L 2.648438 18.152344 L 11.308594 17.226562 L 9.539062 0.628906 Z M 0.878906 1.550781 " clip-rule="nonzero"/></clipPath><clipPath id="29ee2e6591"><path d="M 2 6 L 11 6 L 11 18 L 2 18 Z M 2 6 " clip-rule="nonzero"/></clipPath><clipPath id="cf97eac03d"><path d="M 2.675781 18.375 L 0.902344 1.777344 L 9.5625 0.851562 L 11.335938 17.453125 Z M 2.675781 18.375 " clip-rule="nonzero"/></clipPath><clipPath id="4a76ef02c5"><path d="M 0.878906 1.550781 L 2.648438 18.152344 L 11.308594 17.226562 L 9.539062 0.628906 Z M 0.878906 1.550781 " clip-rule="nonzero"/></clipPath><clipPath id="654efc9011"><rect x="0" width="12" y="0" height="19"/></clipPath></defs><g clip-path="url(#a4491d0e97)"><g clip-path="url(#bb8de3e0df)"><g clip-path="url(#588527da17)"><g transform="matrix(1, 0, 0, 1, 1, 0.00000000000000569)"><g clip-path="url(#7d42a0f1fb)"><g clip-path="url(#4eea929914)"><g clip-path="url(#248c1d9954)"><g clip-path="url(#53dc7bf7c1)"><path fill="#ffffff" d="M -0.464844 2.566406 L 25.859375 0 L 28.4375 26.425781 L 2.113281 28.996094 Z M -0.464844 2.566406 " fill-opacity="1" fill-rule="nonzero"/></g></g></g></g></g></g></g></g><g clip-path="url(#ec418cf9c0)"><g clip-path="url(#05cb21c169)"><g clip-path="url(#da7ecba9c6)"><g transform="matrix(1, 0, 0, 1, 2, 1)"><g clip-path="url(#94868f47ba)"><g clip-path="url(#06f531f6b0)"><g clip-path="url(#7487ec4f07)"><g clip-path="url(#0819777191)"><path fill="#0293ff" d="M -0.4375 2.316406 L 23.941406 -0.0625 L 26.347656 24.601562 L 1.96875 26.980469 Z M -0.4375 2.316406 " fill-opacity="1" fill-rule="nonzero"/></g></g></g></g></g></g></g></g><g clip-path="url(#be2c70147c)"><g clip-path="url(#47effabf2a)"><g transform="matrix(1, 0, 0, 1, 9, 5)"><g clip-path="url(#654efc9011)"><g clip-path="url(#d12c3bc0c7)"><g clip-path="url(#2cc2201c2b)"><g clip-path="url(#4d9ffd8b09)"><path fill="#ffffff" d="M 3.765625 8.6875 L 3.429688 5.535156 C 3.304688 4.371094 4.148438 3.332031 5.308594 3.207031 C 6.46875 3.082031 7.511719 3.921875 7.636719 5.085938 L 9.738281 4.859375 C 9.492188 2.535156 7.40625 0.855469 5.082031 1.101562 C 2.761719 1.351562 1.078125 3.433594 1.328125 5.757812 L 1.664062 8.914062 C 1.910156 11.234375 3.996094 12.917969 6.320312 12.671875 L 7.371094 12.558594 L 7.144531 10.453125 L 6.09375 10.566406 C 4.933594 10.691406 3.890625 9.851562 3.765625 8.6875 Z M 3.765625 8.6875 " fill-opacity="1" fill-rule="evenodd"/></g></g></g><g clip-path="url(#29ee2e6591)"><g clip-path="url(#cf97eac03d)"><g clip-path="url(#4a76ef02c5)"><path fill="#ffffff" d="M 8.195312 10.34375 L 8.535156 13.496094 C 8.65625 14.660156 7.816406 15.699219 6.65625 15.824219 C 5.496094 15.949219 4.453125 15.109375 4.328125 13.945312 L 2.226562 14.171875 C 2.472656 16.492188 4.558594 18.175781 6.878906 17.925781 C 9.203125 17.679688 10.886719 15.59375 10.636719 13.273438 L 10.300781 10.117188 C 10.050781 7.792969 7.96875 6.113281 5.644531 6.359375 L 4.59375 6.472656 L 4.816406 8.574219 L 5.871094 8.464844 C 7.03125 8.339844 8.074219 9.179688 8.195312 10.34375 Z M 8.195312 10.34375 " fill-opacity="1" fill-rule="evenodd"/></g></g></g></g></g></g></g></svg>